<?xml version="1.0" encoding="UTF-8" standalone="no"?>
<!-- Created with Inkscape (http://www.inkscape.org/) -->

<svg
   version="1.1"
   width="512"
   height="512"
   viewBox="0 0 512 512"
   id="svg1"
   xmlns="http://www.w3.org/2000/svg"
   xmlns:svg="http://www.w3.org/2000/svg">
  <defs
     id="defs1" />
  <path
     id="rect1"
     style="fill:#c5b8b3"
     d="M 0,0 H 512 V 512 H 0 Z" />
  <path
     id="rect6"
     style="fill:#58524f"
     d="M 102.5,102.5 H 205 V 111 H 102.5 Z" />
  <path
     id="rect7"
     style="fill:#58524f"
     d="M 307,102.5 H 409.5 V 111 H 307 Z" />
  <path
     id="rect9"
     d="M 102.5,111 H 205 V 205 H 102.5 Z" />
  <path
     id="rect11"
     d="M 307,111 H 409.5 V 205 H 307 Z" />
  <path
     id="rect12"
     style="fill:#e8dfdb"
     d="M 102.5,205 H 205 V 213.5 H 102.5 Z" />
  <path
     id="rect13"
     style="fill:#e8dfdb"
     d="M 307,205 H 409.5 V 213.5 H 307 Z" />
  <path
     id="rect14"
     style="fill:#58524f"
     d="M 205,205 H 307 V 213.5 H 205 Z" />
  <path
     id="rect15"
     d="M 205,213.5 V 264.5 H 153.5 V 409.5 H 205 V 358.5 H 307 V 409.5 H 358.5 V 264.5 H 307 V 213.5 Z"
     fill="#000000" />
  <path
     id="rect16"
     style="fill:#e8dfdb"
     d="M 205,358.5 H 307 V 367 H 205 Z" />
  <path
     id="rect17"
     style="fill:#58524f"
     d="M 153.5,256 H 205 V 264.5 H 153.5 Z" />
  <path
     id="rect19"
     style="fill:#e8dfdb"
     d="M 153.5,409.5 H 205 V 418 H 153.5 Z" />
  <path
     id="rect20"
     style="fill:#58524f"
     d="M 307,256 H 358.5 V 264.5 H 307 Z" />
  <path
     id="rect22"
     style="fill:#e8dfdb"
     d="M 307,409.5 H 358.5 V 418 H 307 Z" />
</svg>
